<svg xmlns="http://www.w3.org/2000/svg" viewBox="0 0 500 500"><g id="freepik--background-complete--inject-13"><path d="M287.05,307.6a9,9,0,0,0-.47,1.76,8.53,8.53,0,0,0-1.59-2.87,18.22,18.22,0,0,0-4.13-3.37l-.13-.09a12,12,0,0,0,.53,6.2,9.48,9.48,0,0,0,.56,1.1c-.38-.08-.76-.14-1.15-.2-2.59-.36-6.72.18-8.73.41a22,22,0,0,0,8,5.21l.56.19a8,8,0,0,0-1.31.9,18.77,18.77,0,0,0-3.37,4.13l-.09.13a11.91,11.91,0,0,0,6.2-.54,8.21,8.21,0,0,0,2.3-1.43,7.58,7.58,0,0,0-.24,1.33,11,11,0,0,0,1,5.19l.08-.11a17.89,17.89,0,0,0,2.28-4,9.46,9.46,0,0,0,.48-4.33,26.14,26.14,0,0,0-.57-2.81h0a26.24,26.24,0,0,0,1.77-2.27,9.57,9.57,0,0,0,1.5-4.09,18.49,18.49,0,0,0-.27-4.56l0-.14A11.21,11.21,0,0,0,287.05,307.6Z" style="fill:#ebebeb"></path><path d="M293.13,315.3c0,.09-3.28-.41-7.3-1.11s-7.26-1.34-7.24-1.43,3.28.41,7.3,1.11S293.15,315.21,293.13,315.3Z" style="fill:#e0e0e0"></path><path d="M285.43,314c.06.07-.42.57-1.07,1.13s-1.23.95-1.29.88.42-.58,1.07-1.13S285.37,313.91,285.43,314Z" style="fill:#e0e0e0"></path><path d="M283.86,313.84c-.09,0-.3-.44-.58-1s-.52-1-.45-1.06.45.33.75.91S284,313.81,283.86,313.84Z" style="fill:#e0e0e0"></path><path d="M199.43,87.77c.52-3.78-4.82-6.89-8.82-7.21-1.91-.16-3.9.13-5.71-.5-3.92-1.36-5.49-6.43-9.31-8-2.87-1.2-6.16-.13-8.93,1.27s-5.52,3.15-8.62,3.35c-2.69.17-5.62-.83-8,.49-1.76,1-2.68,3-4.3,4.2a10.16,10.16,0,0,1-5.61,1.52,15.91,15.91,0,0,0-5.8,1c-1.79.82-3.27,2.71-2.9,4.65Z" style="fill:#f5f5f5"></path><rect x="75.74" y="168.43" width="80.8" height="256.07" style="fill:#f5f5f5"></rect><rect x="116.14" y="168.43" width="40.4" height="255.36" style="fill:#ebebeb"></rect><rect x="84.96" y="143.29" width="28.53" height="25.14" style="fill:#f5f5f5"></rect><rect x="106.69" y="143.29" width="6.8" height="25.14" style="fill:#ebebeb"></rect><polyline points="69 168.43 69 166.96 158.9 166.96 158.9 168.43" style="fill:#e0e0e0"></polyline><rect x="91.69" y="179.39" width="6.84" height="14.42" style="fill:#fafafa"></rect><path d="M116.14,199.47c0,.15-9,.28-20.2.28s-20.2-.13-20.2-.28,9-.27,20.2-.27S116.14,199.32,116.14,199.47Z" style="fill:#e0e0e0"></path><rect x="132.44" y="179.39" width="6.84" height="14.42" style="fill:#e0e0e0"></rect><path d="M156.89,199.47c0,.15-9,.28-20.2.28s-20.2-.13-20.2-.28,9-.27,20.2-.27S156.89,199.32,156.89,199.47Z" style="fill:#e0e0e0"></path><rect x="132.44" y="208.02" width="6.84" height="14.42" style="fill:#e0e0e0"></rect><path d="M156.89,228.1c0,.16-9,.28-20.2.28s-20.2-.12-20.2-.28,9-.27,20.2-.27S156.89,228,156.89,228.1Z" style="fill:#e0e0e0"></path><rect x="132.44" y="237.52" width="6.84" height="14.42" style="fill:#e0e0e0"></rect><path d="M156.89,257.6c0,.15-9,.27-20.2.27s-20.2-.12-20.2-.27,9-.28,20.2-.28S156.89,257.45,156.89,257.6Z" style="fill:#e0e0e0"></path><rect x="132.44" y="267.01" width="6.84" height="14.42" style="fill:#e0e0e0"></rect><path d="M156.89,287.09c0,.16-9,.28-20.2.28s-20.2-.12-20.2-.28,9-.27,20.2-.27S156.89,286.94,156.89,287.09Z" style="fill:#e0e0e0"></path><rect x="132.44" y="295.66" width="6.84" height="14.42" style="fill:#e0e0e0"></rect><path d="M156.89,315.74c0,.16-9,.28-20.2.28s-20.2-.12-20.2-.28,9-.27,20.2-.27S156.89,315.59,156.89,315.74Z" style="fill:#e0e0e0"></path><rect x="132.44" y="324.43" width="6.84" height="14.42" style="fill:#e0e0e0"></rect><rect x="132.44" y="353.58" width="6.84" height="14.42" style="fill:#e0e0e0"></rect><path d="M156.89,344.51c0,.15-9,.28-20.2.28s-20.2-.13-20.2-.28,9-.27,20.2-.27S156.89,344.36,156.89,344.51Z" style="fill:#e0e0e0"></path><rect x="91.69" y="208.46" width="6.84" height="14.42" style="fill:#fafafa"></rect><path d="M116.14,228.54c0,.15-9,.28-20.2.28s-20.2-.13-20.2-.28,9-.28,20.2-.28S116.14,228.39,116.14,228.54Z" style="fill:#e0e0e0"></path><rect x="91.69" y="237.53" width="6.84" height="14.42" style="fill:#fafafa"></rect><path d="M116.14,257.61c0,.15-9,.27-20.2.27s-20.2-.12-20.2-.27,9-.28,20.2-.28S116.14,257.46,116.14,257.61Z" style="fill:#e0e0e0"></path><rect x="91.69" y="266.6" width="6.84" height="14.42" style="fill:#fafafa"></rect><path d="M116.14,286.68c0,.15-9,.27-20.2.27s-20.2-.12-20.2-.27,9-.28,20.2-.28S116.14,286.52,116.14,286.68Z" style="fill:#e0e0e0"></path><rect x="91.69" y="295.66" width="6.84" height="14.42" style="fill:#fafafa"></rect><path d="M116.14,315.74c0,.16-9,.28-20.2.28s-20.2-.12-20.2-.28,9-.27,20.2-.27S116.14,315.59,116.14,315.74Z" style="fill:#e0e0e0"></path><rect x="91.69" y="324.73" width="6.84" height="14.42" style="fill:#fafafa"></rect><path d="M116.14,344.81c0,.16-9,.28-20.2.28s-20.2-.12-20.2-.28,9-.27,20.2-.27S116.14,344.66,116.14,344.81Z" style="fill:#e0e0e0"></path><rect x="91.69" y="353.8" width="6.84" height="14.42" style="fill:#fafafa"></rect><rect x="142.53" y="254.01" width="68.58" height="217.34" style="fill:#f5f5f5"></rect><rect x="176.82" y="254.01" width="34.29" height="216.74" style="fill:#ebebeb"></rect><rect x="150.36" y="232.68" width="24.22" height="21.34" style="fill:#f5f5f5"></rect><rect x="168.81" y="232.68" width="5.77" height="21.34" style="fill:#ebebeb"></rect><polyline points="136.82 254.01 136.82 252.77 213.12 252.77 213.12 254.01" style="fill:#e0e0e0"></polyline><rect x="156.07" y="263.32" width="5.8" height="12.24" style="fill:#fafafa"></rect><path d="M176.82,280.36c0,.13-7.67.24-17.14.24s-17.15-.11-17.15-.24,7.68-.23,17.15-.23S176.82,280.24,176.82,280.36Z" style="fill:#e0e0e0"></path><rect x="190.66" y="263.32" width="5.8" height="12.24" style="fill:#e0e0e0"></rect><path d="M211.41,280.36c0,.13-7.68.24-17.14.24s-17.15-.11-17.15-.24,7.68-.23,17.15-.23S211.41,280.24,211.41,280.36Z" style="fill:#e0e0e0"></path><rect x="190.66" y="287.62" width="5.8" height="12.24" style="fill:#e0e0e0"></rect><path d="M211.41,304.67c0,.13-7.68.23-17.14.23s-17.15-.1-17.15-.23,7.68-.24,17.15-.24S211.41,304.54,211.41,304.67Z" style="fill:#e0e0e0"></path><rect x="190.66" y="312.66" width="5.8" height="12.24" style="fill:#e0e0e0"></rect><path d="M211.41,329.7c0,.13-7.68.23-17.14.23s-17.15-.1-17.15-.23,7.68-.23,17.15-.23S211.41,329.57,211.41,329.7Z" style="fill:#e0e0e0"></path><rect x="190.66" y="337.69" width="5.8" height="12.24" style="fill:#e0e0e0"></rect><path d="M211.41,354.74c0,.12-7.68.23-17.14.23s-17.15-.11-17.15-.23,7.68-.24,17.15-.24S211.41,354.61,211.41,354.74Z" style="fill:#e0e0e0"></path><rect x="190.66" y="362.01" width="5.8" height="12.24" style="fill:#e0e0e0"></rect><path d="M211.41,379.05c0,.13-7.68.24-17.14.24s-17.15-.11-17.15-.24,7.68-.23,17.15-.23S211.41,378.93,211.41,379.05Z" style="fill:#e0e0e0"></path><rect x="190.66" y="386.43" width="5.8" height="12.24" style="fill:#e0e0e0"></rect><rect x="190.66" y="411.16" width="5.8" height="12.24" style="fill:#e0e0e0"></rect><path d="M211.41,403.47c0,.13-7.68.24-17.14.24s-17.15-.11-17.15-.24,7.68-.23,17.15-.23S211.41,403.34,211.41,403.47Z" style="fill:#e0e0e0"></path><rect x="156.07" y="287.99" width="5.8" height="12.24" style="fill:#fafafa"></rect><path d="M176.82,305c0,.13-7.67.23-17.14.23s-17.15-.1-17.15-.23,7.68-.24,17.15-.24S176.82,304.91,176.82,305Z" style="fill:#e0e0e0"></path><rect x="156.07" y="312.67" width="5.8" height="12.24" style="fill:#fafafa"></rect><path d="M176.82,329.71c0,.13-7.67.23-17.14.23s-17.15-.1-17.15-.23,7.68-.23,17.15-.23S176.82,329.58,176.82,329.71Z" style="fill:#e0e0e0"></path><rect x="156.07" y="337.34" width="5.8" height="12.24" style="fill:#fafafa"></rect><path d="M176.82,354.38c0,.13-7.67.24-17.14.24s-17.15-.11-17.15-.24,7.68-.23,17.15-.23S176.82,354.25,176.82,354.38Z" style="fill:#e0e0e0"></path><rect x="156.07" y="362.01" width="5.8" height="12.24" style="fill:#fafafa"></rect><path d="M176.82,379.05c0,.13-7.67.24-17.14.24s-17.15-.11-17.15-.24,7.68-.23,17.15-.23S176.82,378.93,176.82,379.05Z" style="fill:#e0e0e0"></path><rect x="156.07" y="386.68" width="5.8" height="12.24" style="fill:#fafafa"></rect><path d="M176.82,403.73c0,.13-7.67.23-17.14.23s-17.15-.1-17.15-.23,7.68-.24,17.15-.24S176.82,403.6,176.82,403.73Z" style="fill:#e0e0e0"></path><rect x="156.07" y="411.36" width="5.8" height="12.24" style="fill:#fafafa"></rect><polygon points="144.23 472.07 25.33 472.07 24.81 284.16 143.71 284.16 144.23 472.07" style="fill:#ebebeb"></polygon><rect x="84.26" y="284.16" width="59.45" height="187.91" style="fill:#e0e0e0"></rect><rect x="38.39" y="247.17" width="41.98" height="36.99" style="fill:#ebebeb"></rect><rect x="70.37" y="247.17" width="10.01" height="36.99" style="fill:#e0e0e0"></rect><rect x="14.9" y="282" width="132.28" height="2.16" style="fill:#e0e0e0"></rect><rect x="48.28" y="300.29" width="10.06" height="21.22" style="fill:#fff"></rect><path d="M84.26,329.84c0,.23-13.31.41-29.72.41s-29.73-.18-29.73-.41,13.31-.4,29.73-.4S84.26,329.62,84.26,329.84Z" style="fill:#e0e0e0"></path><rect x="108.25" y="300.29" width="10.06" height="21.22" style="fill:#f5f5f5"></rect><path d="M144.23,329.84c0,.23-13.31.41-29.73.41s-29.72-.18-29.72-.41,13.3-.4,29.72-.4S144.23,329.62,144.23,329.84Z" style="fill:#ebebeb"></path><rect x="108.25" y="342.43" width="10.06" height="21.22" style="fill:#f5f5f5"></rect><path d="M144.23,372c0,.22-13.31.4-29.73.4s-29.72-.18-29.72-.4,13.3-.41,29.72-.41S144.23,371.75,144.23,372Z" style="fill:#ebebeb"></path><rect x="108.25" y="385.83" width="10.06" height="21.22" style="fill:#f5f5f5"></rect><path d="M144.23,415.38c0,.22-13.31.4-29.73.4s-29.72-.18-29.72-.4,13.3-.41,29.72-.41S144.23,415.15,144.23,415.38Z" style="fill:#ebebeb"></path><rect x="108.25" y="429.23" width="10.06" height="21.22" style="fill:#f5f5f5"></rect><path d="M144.23,458.78c0,.23-13.31.41-29.73.41s-29.72-.18-29.72-.41,13.3-.4,29.72-.4S144.23,458.56,144.23,458.78Z" style="fill:#ebebeb"></path><rect x="48.28" y="343.07" width="10.06" height="21.22" style="fill:#fff"></rect><path d="M84.26,372.62c0,.22-13.31.4-29.72.4s-29.73-.18-29.73-.4,13.31-.41,29.73-.41S84.26,372.39,84.26,372.62Z" style="fill:#e0e0e0"></path><rect x="48.28" y="385.84" width="10.06" height="21.22" style="fill:#fff"></rect><path d="M84.26,415.39c0,.23-13.31.41-29.72.41s-29.73-.18-29.73-.41,13.31-.4,29.73-.4S84.26,415.17,84.26,415.39Z" style="fill:#e0e0e0"></path><rect x="48.28" y="428.62" width="10.06" height="21.22" style="fill:#fff"></rect><path d="M84.26,458.17c0,.22-13.31.4-29.72.4s-29.73-.18-29.73-.4,13.31-.41,29.73-.41S84.26,457.94,84.26,458.17Z" style="fill:#e0e0e0"></path><rect x="353.82" y="249.43" width="70.09" height="222.13" style="fill:#fafafa"></rect><rect x="388.87" y="249.43" width="35.05" height="221.52" style="fill:#f5f5f5"></rect><rect x="361.82" y="227.63" width="24.75" height="21.81" style="fill:#f5f5f5"></rect><rect x="380.68" y="227.63" width="5.9" height="21.81" style="fill:#ebebeb"></rect><polyline points="347.98 249.43 347.98 248.16 425.96 248.16 425.96 249.43" style="fill:#e0e0e0"></polyline><rect x="367.66" y="258.94" width="5.93" height="12.51" style="fill:#fafafa"></rect><path d="M388.87,276.36c0,.14-7.85.24-17.52.24s-17.53-.1-17.53-.24,7.85-.23,17.53-.23S388.87,276.23,388.87,276.36Z" style="fill:#e0e0e0"></path><rect x="403.01" y="258.94" width="5.93" height="12.51" style="fill:#e0e0e0"></rect><path d="M424.22,276.36c0,.14-7.85.24-17.52.24s-17.53-.1-17.53-.24,7.85-.23,17.53-.23S424.22,276.23,424.22,276.36Z" style="fill:#e0e0e0"></path><rect x="403.01" y="283.78" width="5.93" height="12.51" style="fill:#e0e0e0"></rect><path d="M424.22,301.2c0,.13-7.85.24-17.52.24s-17.53-.11-17.53-.24S397,301,406.7,301,424.22,301.07,424.22,301.2Z" style="fill:#e0e0e0"></path><rect x="403.01" y="309.37" width="5.93" height="12.51" style="fill:#e0e0e0"></rect><path d="M424.22,326.79c0,.13-7.85.24-17.52.24s-17.53-.11-17.53-.24,7.85-.24,17.53-.24S424.22,326.66,424.22,326.79Z" style="fill:#e0e0e0"></path><rect x="403.01" y="334.95" width="5.93" height="12.51" style="fill:#e0e0e0"></rect><path d="M424.22,352.37c0,.14-7.85.24-17.52.24s-17.53-.1-17.53-.24,7.85-.23,17.53-.23S424.22,352.24,424.22,352.37Z" style="fill:#e0e0e0"></path><rect x="403.01" y="359.81" width="5.93" height="12.51" style="fill:#e0e0e0"></rect><path d="M424.22,377.23c0,.13-7.85.24-17.52.24s-17.53-.11-17.53-.24S397,377,406.7,377,424.22,377.1,424.22,377.23Z" style="fill:#e0e0e0"></path><rect x="403.01" y="384.76" width="5.93" height="12.51" style="fill:#e0e0e0"></rect><rect x="403.01" y="410.05" width="5.93" height="12.51" style="fill:#e0e0e0"></rect><path d="M424.22,402.18c0,.14-7.85.24-17.52.24s-17.53-.1-17.53-.24S397,402,406.7,402,424.22,402.05,424.22,402.18Z" style="fill:#e0e0e0"></path><rect x="367.66" y="284.16" width="5.93" height="12.51" style="fill:#fff"></rect><path d="M388.87,301.58c0,.13-7.85.24-17.52.24s-17.53-.11-17.53-.24,7.85-.24,17.53-.24S388.87,301.45,388.87,301.58Z" style="fill:#e0e0e0"></path><rect x="367.66" y="309.38" width="5.93" height="12.51" style="fill:#fff"></rect><path d="M388.87,326.8c0,.13-7.85.24-17.52.24s-17.53-.11-17.53-.24,7.85-.24,17.53-.24S388.87,326.66,388.87,326.8Z" style="fill:#e0e0e0"></path><rect x="367.66" y="334.59" width="5.93" height="12.51" style="fill:#fff"></rect><path d="M388.87,352c0,.13-7.85.24-17.52.24s-17.53-.11-17.53-.24,7.85-.24,17.53-.24S388.87,351.88,388.87,352Z" style="fill:#e0e0e0"></path><rect x="367.66" y="359.81" width="5.93" height="12.51" style="fill:#fff"></rect><path d="M388.87,377.23c0,.13-7.85.24-17.52.24s-17.53-.11-17.53-.24,7.85-.24,17.53-.24S388.87,377.1,388.87,377.23Z" style="fill:#e0e0e0"></path><rect x="367.66" y="385.03" width="5.93" height="12.51" style="fill:#fff"></rect><path d="M388.87,402.45c0,.13-7.85.23-17.52.23s-17.53-.1-17.53-.23,7.85-.24,17.53-.24S388.87,402.31,388.87,402.45Z" style="fill:#e0e0e0"></path><rect x="367.66" y="410.24" width="5.93" height="12.51" style="fill:#fff"></rect><rect x="368.18" y="441.72" width="10.82" height="29.84" style="fill:#fff"></rect><polygon points="481.6 471.56 407.69 471.56 407.37 354.76 481.27 354.76 481.6 471.56" style="fill:#ebebeb"></polygon><rect x="444.32" y="354.76" width="36.95" height="116.81" style="fill:#e0e0e0"></rect><rect x="415.8" y="331.76" width="26.1" height="23" style="fill:#ebebeb"></rect><rect x="435.68" y="331.76" width="6.22" height="23" style="fill:#e0e0e0"></rect><rect x="401.21" y="353.41" width="82.23" height="1.34" style="fill:#e0e0e0"></rect><rect x="421.95" y="364.79" width="6.26" height="13.19" style="fill:#fff"></rect><path d="M444.32,383.15c0,.14-8.27.26-18.48.26s-18.48-.12-18.48-.26,8.28-.25,18.48-.25S444.32,383,444.32,383.15Z" style="fill:#e0e0e0"></path><rect x="459.23" y="364.79" width="6.26" height="13.19" style="fill:#f5f5f5"></rect><path d="M481.6,383.15c0,.14-8.28.26-18.48.26s-18.48-.12-18.48-.26,8.27-.25,18.48-.25S481.6,383,481.6,383.15Z" style="fill:#ebebeb"></path><rect x="459.23" y="390.98" width="6.26" height="13.19" style="fill:#f5f5f5"></rect><path d="M481.6,409.34c0,.14-8.28.26-18.48.26s-18.48-.12-18.48-.26,8.27-.25,18.48-.25S481.6,409.21,481.6,409.34Z" style="fill:#ebebeb"></path><rect x="459.23" y="417.96" width="6.26" height="13.19" style="fill:#f5f5f5"></rect><path d="M481.6,436.33c0,.13-8.28.25-18.48.25s-18.48-.12-18.48-.25,8.27-.26,18.48-.26S481.6,436.19,481.6,436.33Z" style="fill:#ebebeb"></path><rect x="459.23" y="444.94" width="6.26" height="13.19" style="fill:#f5f5f5"></rect><path d="M481.6,463.31c0,.14-8.28.25-18.48.25s-18.48-.11-18.48-.25,8.27-.26,18.48-.26S481.6,463.17,481.6,463.31Z" style="fill:#ebebeb"></path><rect x="421.95" y="391.38" width="6.26" height="13.19" style="fill:#fff"></rect><path d="M444.32,409.74c0,.14-8.27.26-18.48.26s-18.48-.12-18.48-.26,8.28-.25,18.48-.25S444.32,409.61,444.32,409.74Z" style="fill:#e0e0e0"></path><rect x="421.95" y="417.97" width="6.26" height="13.19" style="fill:#fff"></rect><path d="M444.32,436.33c0,.14-8.27.26-18.48.26s-18.48-.12-18.48-.26,8.28-.25,18.48-.25S444.32,436.2,444.32,436.33Z" style="fill:#e0e0e0"></path><rect x="421.95" y="444.56" width="6.26" height="13.19" style="fill:#fff"></rect><path d="M444.32,462.92c0,.14-8.27.26-18.48.26s-18.48-.12-18.48-.26,8.28-.25,18.48-.25S444.32,462.79,444.32,462.92Z" style="fill:#e0e0e0"></path><path d="M453.66,49.15c.52-3.78-4.81-6.89-8.82-7.21-1.91-.16-3.9.14-5.71-.49-3.92-1.37-5.48-6.44-9.31-8.05-2.86-1.21-6.16-.14-8.93,1.26s-5.52,3.15-8.61,3.35c-2.7.17-5.63-.83-8,.49-1.75,1-2.67,3-4.29,4.2a10.31,10.31,0,0,1-5.62,1.53,15.65,15.65,0,0,0-5.79.94c-1.79.82-3.28,2.72-2.9,4.65Z" style="fill:#f5f5f5"></path><path d="M98.61,57.81c.37-2.66-3.38-4.85-6.2-5.07a16.23,16.23,0,0,1-4-.35c-2.76-1-3.86-4.53-6.55-5.66-2-.85-4.34-.1-6.29.89S71.67,49.83,69.49,50c-1.9.13-4-.58-5.62.35-1.23.69-1.88,2.11-3,3a7.28,7.28,0,0,1-4,1.07,11.17,11.17,0,0,0-4.08.66,3.23,3.23,0,0,0-2,3.27Z" style="fill:#f5f5f5"></path><path d="M295.86,37.32c.37-2.66-3.39-4.85-6.21-5.08a15.73,15.73,0,0,1-4-.34c-2.76-1-3.86-4.53-6.56-5.67-2-.84-4.33-.09-6.28.89s-3.88,2.22-6.06,2.36c-1.9.12-4-.58-5.62.35-1.23.69-1.88,2.11-3,3a7.13,7.13,0,0,1-4,1.07,11.15,11.15,0,0,0-4.07.67,3.23,3.23,0,0,0-2,3.27Z" style="fill:#f5f5f5"></path></g><g id="freepik--Floor--inject-13"><path d="M471.58,472.22c0,.15-99.21.26-221.57.26s-221.59-.11-221.59-.26S127.61,472,250,472,471.58,472.08,471.58,472.22Z" style="fill:#263238"></path></g><g id="freepik--Wind--inject-13"><path d="M30.74,338.79s.33-.27,1-.78l2.95-2.24c2.62-1.95,6.45-4.86,11.48-8.47s11.25-8,18.78-12.54a155.86,155.86,0,0,1,26.79-13.24,118.87,118.87,0,0,1,35.43-7.18,156.42,156.42,0,0,1,41.35,3.8A223.52,223.52,0,0,1,212,313,483.1,483.1,0,0,1,255.65,336l21.62,12.63a196.38,196.38,0,0,0,21.65,11,100.51,100.51,0,0,0,11.13,4A76.13,76.13,0,0,0,321.36,366a77.31,77.31,0,0,0,22.34-.21,100.7,100.7,0,0,0,20.58-5.57,136.13,136.13,0,0,0,18.19-8.62,234.15,234.15,0,0,0,29.85-20.43c8.72-6.82,16.44-13.21,23.39-18.62s13.05-9.91,18.2-13.36c2.56-1.75,4.9-3.19,6.92-4.46s3.79-2.25,5.21-3.06l3.26-1.76,1.12-.58s-.36.22-1.09.63l-3.24,1.81c-1.41.82-3.14,1.86-5.18,3.09s-4.34,2.74-6.89,4.5c-5.12,3.47-11.22,8-18.13,13.42s-14.63,11.84-23.34,18.68A233.36,233.36,0,0,1,382.69,352a135.93,135.93,0,0,1-18.25,8.67,101.09,101.09,0,0,1-20.67,5.62,77.55,77.55,0,0,1-22.48.22A75.53,75.53,0,0,1,309.91,364a103.55,103.55,0,0,1-11.19-4A196.43,196.43,0,0,1,277,349l-21.63-12.63a484.9,484.9,0,0,0-43.63-22.94,223.43,223.43,0,0,0-43.34-14.86,156.47,156.47,0,0,0-41.23-3.84,118.53,118.53,0,0,0-35.32,7.1A155.34,155.34,0,0,0,65.1,315c-7.54,4.53-13.75,8.88-18.81,12.45s-8.9,6.47-11.53,8.4l-3,2.2Z" style="fill:#263238"></path><path d="M341.76,300.66a1.56,1.56,0,0,1,.35.06,4.69,4.69,0,0,0,1.05.13,6,6,0,0,0,3.74-1.28,7.55,7.55,0,0,0,3.05-5.36c.23-2.47-1.42-5.29-4.2-6.71a9.67,9.67,0,0,0-4.69-1.15,9.36,9.36,0,0,0-5,1.56,13.92,13.92,0,0,0-5.94,9.7,24.7,24.7,0,0,0,2,12.73,43,43,0,0,0,7.37,11.88,44,44,0,0,0,22.81,13.92,40.82,40.82,0,0,0,11.76,1.05,44.81,44.81,0,0,0,23.62-8.14c1.42-1.05,2.51-1.89,3.2-2.52l.82-.69.28-.22s-.07.09-.25.26l-.78.73a39,39,0,0,1-3.15,2.6,44,44,0,0,1-13.46,6.64,45.38,45.38,0,0,1-10.26,1.78,41.34,41.34,0,0,1-11.89-1,44.13,44.13,0,0,1-23.09-14,43.06,43.06,0,0,1-7.45-12,25.14,25.14,0,0,1-2-13,14.37,14.37,0,0,1,6.18-10,9.82,9.82,0,0,1,5.21-1.6,10.16,10.16,0,0,1,4.87,1.22c2.87,1.5,4.58,4.46,4.31,7.06a7.69,7.69,0,0,1-3.22,5.5,6,6,0,0,1-3.87,1.22,4.12,4.12,0,0,1-1-.18A1.86,1.86,0,0,1,341.76,300.66Z" style="fill:#263238"></path><path d="M442.45,155.46a2,2,0,0,1,.15-.34c.06-.11.13-.25.2-.41l.37-.52a6.29,6.29,0,0,1,1.31-1.21,7.68,7.68,0,0,1,8.64.29,7.51,7.51,0,0,1,2.4,3.41,9.65,9.65,0,0,1,.39,4.66,10.31,10.31,0,0,1-2,4.74,12.12,12.12,0,0,1-4.37,3.47,15.9,15.9,0,0,1-5.78,1.47,14.27,14.27,0,0,1-3.13-.08c-.53-.08-1.06-.13-1.59-.22l-1.57-.39a21.77,21.77,0,0,1-6-2.84,25.94,25.94,0,0,1-5.08-4.71,26.8,26.8,0,0,1-3.77-6.11,25.79,25.79,0,0,1-2.08-7.09,30.78,30.78,0,0,1,1.61-14.37,42,42,0,0,1,6.51-11.83,52.11,52.11,0,0,1,8.59-8.7,75.84,75.84,0,0,1,8.74-6.09,148.63,148.63,0,0,1,13.64-7.15l3.8-1.76,1-.44a1.37,1.37,0,0,1,.34-.13,2,2,0,0,1-.32.18l-1,.49-3.76,1.84c-3.26,1.61-8,3.91-13.54,7.28a77.24,77.24,0,0,0-8.66,6.11,51.65,51.65,0,0,0-8.47,8.66,41.64,41.64,0,0,0-6.42,11.71,30.32,30.32,0,0,0-1.57,14.13c1.44,9.7,8.31,18.05,16.56,20.36l1.53.38c.52.09,1,.15,1.55.22a14.18,14.18,0,0,0,3.05.1,15.93,15.93,0,0,0,5.63-1.41,11.69,11.69,0,0,0,4.23-3.33,10,10,0,0,0,1.94-4.55,9.34,9.34,0,0,0-.34-4.49,7.29,7.29,0,0,0-2.27-3.29,7.59,7.59,0,0,0-6.17-1.28,7.32,7.32,0,0,0-2.2.89,6.19,6.19,0,0,0-1.31,1.15c-.15.18-.27.35-.39.49s-.16.28-.22.4A1.28,1.28,0,0,1,442.45,155.46Z" style="fill:#263238"></path><path d="M391.32,83.9s.17-.46.34-1.36a7.94,7.94,0,0,0-.27-4,9.44,9.44,0,0,0-1.24-2.6,10.19,10.19,0,0,0-2.35-2.5,9,9,0,0,0-3.54-1.62,9.55,9.55,0,0,0-4.37.14,12.26,12.26,0,0,0-7.65,6.19,14,14,0,0,0-.37,11.29,18.57,18.57,0,0,0,8.3,9.51,29.71,29.71,0,0,0,13.25,3.76,71.1,71.1,0,0,0,13.93-.76c4.48-.59,8.77-1.38,12.83-2.29s7.87-1.93,11.4-3,6.8-2.18,9.75-3.28c5.9-2.18,10.55-4.25,13.75-5.72,1.6-.72,2.83-1.32,3.67-1.72l.95-.44.34-.14a2.11,2.11,0,0,1-.31.19l-.94.49c-.82.42-2,1.05-3.62,1.81-3.18,1.52-7.82,3.64-13.71,5.88-2.95,1.12-6.21,2.26-9.75,3.35s-7.36,2.15-11.43,3.06-8.37,1.72-12.87,2.32a70.27,70.27,0,0,1-14,.78,30.17,30.17,0,0,1-13.48-3.84,21.08,21.08,0,0,1-5.2-4.25,17.64,17.64,0,0,1-3.29-5.54A14.45,14.45,0,0,1,371.85,78a12.62,12.62,0,0,1,7.95-6.34,9.78,9.78,0,0,1,4.52-.12A9.33,9.33,0,0,1,388,73.25a10,10,0,0,1,2.37,2.59,9.54,9.54,0,0,1,1.24,2.68,7.89,7.89,0,0,1,.17,4,5.28,5.28,0,0,1-.3,1A1.55,1.55,0,0,1,391.32,83.9Z" style="fill:#263238"></path></g><g id="freepik--Plants--inject-13"><path d="M69.81,443.87a5.94,5.94,0,0,1,.81,1c.5.67,1.2,1.66,2,2.89,1.68,2.47,3.9,5.94,6.18,9.89S83,465.27,84.31,468c.65,1.34,1.15,2.44,1.49,3.2a5.64,5.64,0,0,1,.46,1.21,6.12,6.12,0,0,1-.65-1.12L84,468.12c-1.38-2.64-3.32-6.27-5.59-10.2s-4.44-7.43-6-9.94l-1.9-3A6.29,6.29,0,0,1,69.81,443.87Z" style="fill:#263238"></path><path d="M74.69,426.73a1.65,1.65,0,0,1,.3.4l.77,1.2c.66,1.05,1.57,2.61,2.64,4.55a133.08,133.08,0,0,1,7.32,15.74,133.83,133.83,0,0,1,5.2,16.55c.52,2.16.9,3.92,1.12,5.15.09.56.17,1,.24,1.4a1.72,1.72,0,0,1,0,.5,1.55,1.55,0,0,1-.15-.47c-.09-.38-.21-.84-.34-1.39-.28-1.21-.71-2.95-1.28-5.1a156,156,0,0,0-5.33-16.45,156.9,156.9,0,0,0-7.16-15.75c-1-2-1.88-3.54-2.49-4.62l-.68-1.26A2,2,0,0,1,74.69,426.73Z" style="fill:#263238"></path><path d="M88.32,438.93a8,8,0,0,1,.62,1.23c.38.8.89,2,1.49,3.44,1.21,2.92,2.74,7,4.18,11.63s2.5,8.86,3.17,11.95c.33,1.55.58,2.8.72,3.68a6.49,6.49,0,0,1,.18,1.36,6.27,6.27,0,0,1-.38-1.32c-.23-1-.53-2.18-.88-3.63-.76-3.07-1.88-7.29-3.31-11.88s-2.9-8.71-4-11.66l-1.33-3.49A5.91,5.91,0,0,1,88.32,438.93Z" style="fill:#263238"></path><path d="M329.67,441.31a6.29,6.29,0,0,1,.61,1.15c.37.75.87,1.84,1.47,3.21,1.19,2.74,2.73,6.56,4.24,10.86s2.69,8.25,3.47,11.13c.38,1.44.68,2.62.86,3.43a6.37,6.37,0,0,1,.24,1.28,5.58,5.58,0,0,1-.43-1.23c-.28-.89-.62-2-1-3.37-.86-2.86-2.1-6.78-3.6-11.07s-3-8.12-4.09-10.89c-.53-1.3-1-2.4-1.31-3.27A6.25,6.25,0,0,1,329.67,441.31Z" style="fill:#263238"></path><path d="M337.64,425.37s.09.14.22.44.32.79.53,1.31c.45,1.14,1.05,2.81,1.74,4.9a128.8,128.8,0,0,1,6.24,33.63c.11,2.19.15,4,.13,5.2,0,.56,0,1,0,1.41a1.72,1.72,0,0,1,0,.49,1.61,1.61,0,0,1-.06-.49c0-.38-.05-.85-.08-1.41-.05-1.22-.15-3-.3-5.18a148.68,148.68,0,0,0-6.23-33.54c-.64-2.09-1.18-3.78-1.58-4.94-.17-.54-.31-1-.43-1.34A2.84,2.84,0,0,1,337.64,425.37Z" style="fill:#263238"></path><path d="M348.11,438.27a7.55,7.55,0,0,1,.38,1.3c.22.85.51,2.08.82,3.6.64,3.05,1.38,7.29,1.93,12s.8,9,.87,12.14c0,1.55.05,2.81,0,3.68a6.64,6.64,0,0,1-.08,1.36,7,7,0,0,1-.12-1.35c-.05-1-.12-2.2-.19-3.68-.17-3.1-.48-7.38-1-12.09s-1.23-8.95-1.78-12l-.65-3.62A6,6,0,0,1,348.11,438.27Z" style="fill:#263238"></path><path d="M438.1,440.2a6.52,6.52,0,0,1-.44,1.26c-.35.9-.8,2-1.34,3.39-1.13,2.86-2.62,6.84-4.14,11.27s-2.77,8.5-3.65,11.44c-.42,1.4-.77,2.57-1,3.49a6.9,6.9,0,0,1-.44,1.27,6,6,0,0,1,.24-1.32c.19-.84.5-2.05.89-3.54.8-3,2-7.06,3.52-11.51s3.07-8.41,4.29-11.24c.61-1.41,1.12-2.55,1.49-3.33A7.87,7.87,0,0,1,438.1,440.2Z" style="fill:#263238"></path><path d="M430.13,424.25a2.58,2.58,0,0,1-.12.49c-.12.37-.27.82-.44,1.36-.4,1.17-.95,2.88-1.59,5a153.77,153.77,0,0,0-4.06,16.8,157.83,157.83,0,0,0-2.15,17.16c-.15,2.21-.25,4-.3,5.24,0,.57-.06,1-.08,1.43a1.61,1.61,0,0,1-.06.49,1.77,1.77,0,0,1,0-.5c0-.38,0-.85,0-1.43,0-1.24,0-3,.13-5.25a135.18,135.18,0,0,1,2-17.23A130.32,130.32,0,0,1,427.63,431c.69-2.11,1.29-3.8,1.75-5l.53-1.33A2,2,0,0,1,430.13,424.25Z" style="fill:#263238"></path><path d="M419.66,437.16a6.3,6.3,0,0,1-.19,1.38c-.17,1-.39,2.23-.66,3.73-.54,3.14-1.19,7.51-1.7,12.35s-.8,9.25-1,12.44c-.08,1.52-.14,2.78-.19,3.78a7.35,7.35,0,0,1-.12,1.38,6.93,6.93,0,0,1-.08-1.39c0-.89,0-2.19,0-3.79.07-3.2.3-7.61.81-12.47s1.22-9.23,1.86-12.37c.31-1.57.6-2.83.82-3.7A8.28,8.28,0,0,1,419.66,437.16Z" style="fill:#263238"></path><path d="M168.05,434.29a8.39,8.39,0,0,1,.36,1.47c.19.95.44,2.32.72,4,.55,3.42,1.15,8.17,1.52,13.44s.4,10.07.31,13.53c0,1.73-.1,3.13-.16,4.09a8,8,0,0,1-.16,1.5,9.25,9.25,0,0,1,0-1.5c0-1.06,0-2.44,0-4.09,0-3.46-.12-8.23-.47-13.49s-.91-10-1.37-13.42c-.22-1.64-.41-3-.55-4.06A8.58,8.58,0,0,1,168.05,434.29Z" style="fill:#263238"></path><path d="M275.61,453.32a87.32,87.32,0,0,1-1.82,9.42,88.72,88.72,0,0,1-2.32,9.31,86.82,86.82,0,0,1,1.82-9.42A88.72,88.72,0,0,1,275.61,453.32Z" style="fill:#263238"></path><path d="M267.86,431.18c.14,0-.12,9.22-.58,20.58s-.95,20.57-1.09,20.57.11-9.22.57-20.59S267.71,431.18,267.86,431.18Z" style="fill:#263238"></path><path d="M255.61,447a4.52,4.52,0,0,1,.43.92c.25.6.58,1.49,1,2.59a88.23,88.23,0,0,1,2.52,8.75,90.93,90.93,0,0,1,1.65,9c.15,1.16.25,2.1.29,2.75a4.31,4.31,0,0,1,0,1,31.81,31.81,0,0,1-.69-3.7c-.38-2.29-1-5.45-1.78-8.9s-1.7-6.53-2.37-8.76A32.12,32.12,0,0,1,255.61,447Z" style="fill:#263238"></path></g><g id="freepik--Character--inject-13"><path d="M316.23,203.86l-10.6-1.53s-1.39.69.34,2.5,8,3,8,3Z" style="fill:#ffbe9d"></path><path d="M385.21,134.61c-1.87.53-100.22,100-100.22,100" style="fill:#e0e0e0"></path><path d="M285,234.61a3.24,3.24,0,0,1,.24-.28l.74-.78,2.86-3,10.62-10.83c9-9.14,21.43-21.72,35.22-35.57s26.32-26.36,35.46-35.34c4.57-4.49,8.29-8.1,10.9-10.56,1.3-1.23,2.32-2.17,3-2.79a8.77,8.77,0,0,1,.83-.68,1.5,1.5,0,0,1,.31-.2l-.28.24c-.2.14-.45.41-.79.72-.69.64-1.69,1.61-3,2.86l-10.78,10.68L335,184.54,299.71,220c-4.51,4.51-8.18,8.16-10.73,10.72L286,233.62l-.77.75A1.88,1.88,0,0,1,285,234.61Z" style="fill:#263238"></path><path d="M286.13,235.73l-2.27-2.24c.24-.25,24.87-25.16,49.41-49.81,49.93-50.16,50.8-50.4,51.5-50.6l.88,3.07A1.43,1.43,0,0,0,386,136C383,138.07,324.64,196.78,286.13,235.73Z" style="fill:#e0e0e0"></path><path d="M286.13,235.73l.51-.54,1.48-1.53,5.7-5.84L315,206.34l31.6-31.83,18.78-18.78,10-9.9,5.14-5,2.63-2.52c.87-.84,1.76-1.69,2.73-2.5l.3.43a2.14,2.14,0,0,1-.44.2l-.25.07-.07-.25-.88-3.07.32.18a1,1,0,0,0-.3.14c-1.67,1.3-3.22,2.88-4.79,4.34l-4.62,4.49-9,8.87-17.09,17-29.87,30L283.9,233.52v-.07l1.67,1.69.57.59-.58-.53-1.73-1.67,0,0,0,0,35.08-35.57,29.8-30,17.08-17.05,9-8.88,4.62-4.49c1.59-1.49,3.09-3,4.87-4.41a1.86,1.86,0,0,1,.43-.2l.26-.07.07.24.88,3.08-.33-.18a.87.87,0,0,0,.29-.13l.3.43c-.91.77-1.8,1.6-2.68,2.44s-1.75,1.69-2.62,2.52l-5.14,5-10,9.89-18.79,18.75L315.25,206.6,294,228l-5.81,5.8-1.51,1.48C286.3,235.58,286.13,235.73,286.13,235.73Z" style="fill:#263238"></path><path d="M300.06,220.37l1.87-5.45s2.37-10.56,2.58-11.69,3.73.05,3.54,3.84-.81,4.61,0,5.38,2.84-1.61,2.84-1.61l6.6-6.91,3.22,9.5a4.05,4.05,0,0,1-.86,4.06c-1.53,1.65-3.77,4.09-5.05,5.7s-10.24,9.95-10.24,9.95Z" style="fill:#ffbe9d"></path><path d="M308.81,212.7s-.15.2-.53.12a1,1,0,0,1-.56-.38,1.68,1.68,0,0,1-.29-.83c-.14-1.24.35-2.87.5-4.61a5.16,5.16,0,0,0-.33-2.37,2.77,2.77,0,0,0-1.29-1.38,2.83,2.83,0,0,0-1.78-.2s.13-.16.47-.26a2.27,2.27,0,0,1,1.46.12,3,3,0,0,1,1.57,1.52,5.22,5.22,0,0,1,.42,2.61,20.6,20.6,0,0,1-.41,2.53,10.16,10.16,0,0,0-.24,2,1,1,0,0,0,.54,1C308.61,212.75,308.79,212.66,308.81,212.7Z" style="fill:#eb996e"></path><path d="M207,295.94l-20.8-7.46-14.61,9.89a27.35,27.35,0,0,0-2.72,8,11.38,11.38,0,0,0,1.63,8.09c1.81,2.58,4.87,4,7.93,4.75s6.23,1,9.25,1.88a24,24,0,0,1,16.82,20c0,.36.07.73.09,1.09l8.53-18.58C212.38,322.27,207,295.94,207,295.94Z" style="fill:#407BFF"></path><g style="opacity:0.30000000000000004"><path d="M207,295.94l-20.8-7.46-14.61,9.89a27.35,27.35,0,0,0-2.72,8,11.38,11.38,0,0,0,1.63,8.09c1.81,2.58,4.87,4,7.93,4.75s6.23,1,9.25,1.88a24,24,0,0,1,16.82,20c0,.36.07.73.09,1.09l8.53-18.58C212.38,322.27,207,295.94,207,295.94Z"></path></g><path d="M274.28,109.65a59.31,59.31,0,0,0-8.57,5.26c-2.75,1.93-5.77,3.73-9.11,4-6.82.62-13-5-19.8-4.76-5.37.21-9.84,3.94-14.19,7.1s-9.83,6-14.89,4.22a8.42,8.42,0,0,0-2.2-.66,1.82,1.82,0,0,0-1.89,1,2.36,2.36,0,0,0,0,1.12,45.5,45.5,0,0,0,4.36,14.87c1.52,3.1,3.52,6.15,6.54,7.82s7.26,1.54,9.5-1.08a6.34,6.34,0,0,1-5.24,5.38,26,26,0,0,0,3.07,6.26,8.89,8.89,0,0,0,5.66,3.78c5.1.76,9.32-4.31,14.41-4.92-.24.29-.47.59-.7.88-1.81,2.29-4,4.63-6.94,4.9-1,.09-1.94-.07-2.9.08a2.51,2.51,0,0,0-2.17,1.66,3.34,3.34,0,0,0,.3,1.86l1.65,4.49a3.87,3.87,0,0,0,1.66,2.36,3.82,3.82,0,0,0,2.2.08l10.35-1.64c6.24-1,12.54-2,18.41-4.34,1.92-.76,3.93-1.81,4.75-3.7a8.83,8.83,0,0,0,.52-3.23q.12-3.53.25-7c4.77-.61,13.09,1.17,15.81,2.7l18.79-39.88C294.36,99.37,276.35,108.68,274.28,109.65Z" style="fill:#263238"></path><path d="M299.29,116.56c6.34-3,11.87,3.85,12.63,9.9s-2.84,17.91-5,23.61c-2.47,6.52-5.57,17.33-10.54,22.22-5.93,5.83-12.1,1-20.41.5s-10.52-4.57-15.76-11Z" style="fill:#263238"></path><path d="M254.41,171.9l14.12-51.33a4.51,4.51,0,0,1,5.19-3.2l24.67,1.15c7.57,1.45,9.71,12,7.94,19.47-2,8.34-4.69,18.45-7.51,24.26-5.67,11.68-15.56,10.39-15.56,10.39l-2.19,7-2.3,8.1Z" style="fill:#ffbe9d"></path><path d="M300.23,147.8a1.64,1.64,0,0,1-2,1.13A1.58,1.58,0,0,1,297,147a1.65,1.65,0,0,1,2-1.13A1.57,1.57,0,0,1,300.23,147.8Z" style="fill:#263238"></path><path d="M302.58,142.54c-.25.15-1.18-1.1-2.88-1.6s-3.19,0-3.31-.31c-.06-.12.25-.43.91-.66a4.56,4.56,0,0,1,2.73,0,4.38,4.38,0,0,1,2.21,1.54C302.64,142.06,302.71,142.48,302.58,142.54Z" style="fill:#263238"></path><path d="M284.36,142.44a1.65,1.65,0,0,1-2,1.13,1.57,1.57,0,0,1-1.19-1.91,1.63,1.63,0,0,1,2-1.13A1.57,1.57,0,0,1,284.36,142.44Z" style="fill:#263238"></path><path d="M285.83,137.81c-.25.14-1.18-1.1-2.87-1.61s-3.2,0-3.32-.3.25-.43.91-.66a4.48,4.48,0,0,1,2.73,0,4.32,4.32,0,0,1,2.21,1.53C285.89,137.32,286,137.75,285.83,137.81Z" style="fill:#263238"></path><path d="M288.17,152.24a11.66,11.66,0,0,1,2.9.34c.45.08.89.12,1.05-.15a2.26,2.26,0,0,0,.1-1.37c-.09-1.17-.18-2.4-.28-3.68-.36-5.23-.47-9.48-.26-9.49s.67,4.21,1,9.44c.08,1.29.15,2.51.22,3.69a2.56,2.56,0,0,1-.29,1.76,1.12,1.12,0,0,1-.9.42,3.28,3.28,0,0,1-.77-.12A11.73,11.73,0,0,1,288.17,152.24Z" style="fill:#263238"></path><path d="M283.26,172.64a32.61,32.61,0,0,1-15.11-9.37s1.47,10,14.11,12.58Z" style="fill:#eb996e"></path><path d="M286.7,156.19a4.35,4.35,0,0,0-2.88-2.86,2.82,2.82,0,0,0-2.6.54,2.6,2.6,0,0,0,1.66,4.57,6.46,6.46,0,0,0,3-.79,1.91,1.91,0,0,0,.72-.47.91.91,0,0,0,.2-.88" style="fill:#eb996e"></path><path d="M288.37,134.3c-.3.41-1.93-.32-4-.68s-3.83-.31-4-.8c-.06-.24.35-.59,1.14-.84a6.72,6.72,0,0,1,3.16-.13,6.57,6.57,0,0,1,2.9,1.27C288.26,133.63,288.51,134.11,288.37,134.3Z" style="fill:#263238"></path><path d="M303.75,136.53c-.41.3-1.46-.46-2.85-.9s-2.67-.53-2.83-1c-.06-.24.25-.57.88-.77a4.31,4.31,0,0,1,4.57,1.54C303.9,135.94,303.94,136.38,303.75,136.53Z" style="fill:#263238"></path><path d="M267.21,139c.74-2.65-2.26-4.27-5-3.72-1.48.3-2.91,1.42-3.72,4.23-2.17,7.48,5.79,8.11,5.86,7.9S266.34,142.07,267.21,139Z" style="fill:#ffbe9d"></path><path d="M262.93,143.88s-.16.06-.41.09a1.34,1.34,0,0,1-1-.26,3.35,3.35,0,0,1-.65-3.32,4.51,4.51,0,0,1,.9-1.76,1.59,1.59,0,0,1,1.27-.72.69.69,0,0,1,.67.58c0,.24-.05.37,0,.4s.2-.08.23-.41a.9.9,0,0,0-.16-.55,1,1,0,0,0-.67-.4,1.88,1.88,0,0,0-1.69.77,4.55,4.55,0,0,0-1.06,1.95c-.39,1.52,0,3.16,1,3.78a1.46,1.46,0,0,0,1.25.15C262.86,144.06,263,143.9,262.93,143.88Z" style="fill:#eb996e"></path><path d="M265.76,140.36c1.64,2.13,5.7-1.07,8-2.39s4-3.59,5.65-5.68,3.69-4.17,6.31-4.77c3.34-.78,6.89,1,10.22.19,3.18-.79,5.28-3.74,7.09-6.47a3.08,3.08,0,0,0,.74-2.36,3.12,3.12,0,0,0-.93-1.29,47.34,47.34,0,0,0-7.72-6.42,15.71,15.71,0,0,0-9.54-2.58,14.23,14.23,0,0,0-12.41,3.34,23.17,23.17,0,0,0-6.81,11.28,51.44,51.44,0,0,0-2.46,11.48" style="fill:#263238"></path><path d="M207.87,114.38c.22-.1.54,1.29,2.38,2.49A7.68,7.68,0,0,0,214,118a10.47,10.47,0,0,0,5-1.16,41.52,41.52,0,0,0,5.66-3.53,22.09,22.09,0,0,1,7.39-3.63,16.87,16.87,0,0,1,9.19,1c2.94,1,5.73,2.5,8.61,3.62a23.14,23.14,0,0,0,4.27,1.26,12.26,12.26,0,0,0,4.1,0c2.63-.48,5-2.12,7.3-3.6a27.08,27.08,0,0,1,7.33-3.52,26.1,26.1,0,0,1,12.79-.53,23.31,23.31,0,0,1,4.16,1.32c2.2,1,3.23,1.8,3.16,1.93s-1.29-.34-3.5-1a31.89,31.89,0,0,0-4.07-.84,28.25,28.25,0,0,0-5.45-.14,25.07,25.07,0,0,0-13.1,4.76c-1.14.77-2.33,1.59-3.65,2.35a15,15,0,0,1-4.47,1.75,14.4,14.4,0,0,1-5,0,24.28,24.28,0,0,1-4.78-1.38c-3.07-1.2-5.82-2.65-8.54-3.65a14.73,14.73,0,0,0-7.83-1,20.87,20.87,0,0,0-6.7,3.09,39.36,39.36,0,0,1-6.1,3.41,11.58,11.58,0,0,1-5.93.92,8.34,8.34,0,0,1-4.17-1.8,5.44,5.44,0,0,1-1.66-2.33C207.77,114.75,207.8,114.39,207.87,114.38Z" style="fill:#263238"></path><path d="M286.77,158.78a29.64,29.64,0,0,1-3.64-2.71,28.86,28.86,0,0,1-3.52-2.88,15.63,15.63,0,0,1,3.84,2.47A15.13,15.13,0,0,1,286.77,158.78Z" style="fill:#263238"></path><path d="M283.38,108.21a19.48,19.48,0,0,0-4.46-1.43,15.51,15.51,0,0,0-5.32,0,15,15,0,0,0-6.29,2.63h0l-6.15,3.73a14.63,14.63,0,0,1-7.73,2.16,11.56,11.56,0,0,1-6.24-2c-1.8-1.14-3.34-2.48-4.9-3.59a22.28,22.28,0,0,0-9.29-3.9,23.36,23.36,0,0,0-6.85-.16c-1.62.21-2.49.45-2.5.4a2.49,2.49,0,0,1,.62-.2,16.07,16.07,0,0,1,1.85-.4,22.46,22.46,0,0,1,16.45,3.86c1.59,1.12,3.13,2.45,4.89,3.56a11.14,11.14,0,0,0,6,1.91,14.11,14.11,0,0,0,7.46-2.08l6.18-3.68h0a15.13,15.13,0,0,1,6.5-2.64,15.59,15.59,0,0,1,5.43.1,14.14,14.14,0,0,1,3.33,1.09c.37.17.64.34.82.44S283.39,108.2,283.38,108.21Z" style="fill:#263238"></path><path d="M285.38,178.72c0-.06.73.1,2,0a11.23,11.23,0,0,0,5.17-1.74,16.17,16.17,0,0,0,5.49-5.94,52.62,52.62,0,0,0,3.81-9.32c2.28-6.81,3.91-13.12,5-17.71.52-2.3.91-4.16,1.18-5.45.13-.6.24-1.09.32-1.49a2.07,2.07,0,0,1,.15-.51,2.57,2.57,0,0,1-.05.53c-.05.41-.13.9-.22,1.51-.21,1.3-.54,3.18-1,5.49a157.13,157.13,0,0,1-4.83,17.79,50.15,50.15,0,0,1-3.89,9.4,16.13,16.13,0,0,1-5.71,6,10.92,10.92,0,0,1-5.35,1.63,7.41,7.41,0,0,1-1.53-.11A2,2,0,0,1,285.38,178.72Z" style="fill:#263238"></path><path d="M202.74,132.27s.18.29.58.79a6.77,6.77,0,0,0,2.13,1.8,11.17,11.17,0,0,0,10,0,37.7,37.7,0,0,0,6.15-3.67,35.33,35.33,0,0,1,7.19-4.17,13.77,13.77,0,0,1,4.42-1,11.93,11.93,0,0,1,4.67.79c3,1.07,5.89,2.87,9.24,2.83a15.51,15.51,0,0,0,4.84-.71,37.72,37.72,0,0,0,4.5-1.66,70.77,70.77,0,0,1,8.53-3.37,19.15,19.15,0,0,1,4.24-.74,24.24,24.24,0,0,1,4,.21,35.79,35.79,0,0,0,7.14.55,15.5,15.5,0,0,0,5.65-1.5,17.13,17.13,0,0,0,3.71-2.45,17.59,17.59,0,0,0,1.95-2l.46-.58a1.1,1.1,0,0,1,.16-.19,12,12,0,0,1-2.43,3,16.42,16.42,0,0,1-3.72,2.56,15.67,15.67,0,0,1-5.75,1.61,36.62,36.62,0,0,1-7.22-.49,23.59,23.59,0,0,0-4-.19,19.65,19.65,0,0,0-4.13.75,73.75,73.75,0,0,0-8.46,3.38,36.29,36.29,0,0,1-4.56,1.69,16,16,0,0,1-5,.73h-.64l-.63-.08a12.73,12.73,0,0,1-1.26-.2,17.17,17.17,0,0,1-2.4-.75c-1.54-.59-3-1.3-4.47-1.83a11.29,11.29,0,0,0-4.48-.77,13.33,13.33,0,0,0-4.27,1,35.66,35.66,0,0,0-7.11,4.07,37.74,37.74,0,0,1-6.25,3.66,12.63,12.63,0,0,1-5.87,1.11,9.72,9.72,0,0,1-4.33-1.26,6.4,6.4,0,0,1-2.11-1.9A4.37,4.37,0,0,1,202.74,132.27Z" style="fill:#455a64"></path><path d="M204.82,136.45s.19.3.58.8a6.59,6.59,0,0,0,2.14,1.79,11.11,11.11,0,0,0,9.94,0,37.28,37.28,0,0,0,6.15-3.67,35.33,35.33,0,0,1,7.19-4.17,13.77,13.77,0,0,1,4.43-1,11.92,11.92,0,0,1,4.66.79c3,1.06,5.89,2.87,9.25,2.82a15.15,15.15,0,0,0,4.83-.7,37.72,37.72,0,0,0,4.5-1.66,71.43,71.43,0,0,1,8.53-3.37,19.78,19.78,0,0,1,4.24-.75,24.22,24.22,0,0,1,4,.22,36.55,36.55,0,0,0,7.14.55,15.61,15.61,0,0,0,5.66-1.51,16.57,16.57,0,0,0,3.7-2.45,18.88,18.88,0,0,0,2-2l.45-.58c.1-.14.16-.2.16-.19a11.9,11.9,0,0,1-2.43,3,16.42,16.42,0,0,1-3.72,2.57,16.07,16.07,0,0,1-5.75,1.61,36.67,36.67,0,0,1-7.22-.49,23.59,23.59,0,0,0-4-.19,19,19,0,0,0-4.13.75,72.67,72.67,0,0,0-8.46,3.38,36.29,36.29,0,0,1-4.56,1.69,16,16,0,0,1-5,.72h-.64l-.63-.09a10.64,10.64,0,0,1-1.26-.19,17.17,17.17,0,0,1-2.4-.75c-1.54-.59-3-1.3-4.47-1.83a11.28,11.28,0,0,0-4.47-.77,13.6,13.6,0,0,0-4.28.94,36.18,36.18,0,0,0-7.11,4.08,36.58,36.58,0,0,1-6.25,3.65,12.49,12.49,0,0,1-5.86,1.12,9.64,9.64,0,0,1-4.33-1.26,6.46,6.46,0,0,1-2.12-1.9A4.23,4.23,0,0,1,204.82,136.45Z" style="fill:#455a64"></path><path d="M210.08,444.55c.12-.07,3.77,6.07,8.14,13.72s7.82,13.92,7.69,14-3.77-6.08-8.14-13.73S210,444.62,210.08,444.55Z" style="fill:#263238"></path><path d="M222.13,453.59a15,15,0,0,1,1.51,2.52,68.55,68.55,0,0,1,3,6.4c1.06,2.56,1.88,4.93,2.4,6.66a14.62,14.62,0,0,1,.7,2.85,20.52,20.52,0,0,1-1.05-2.73c-.61-1.7-1.48-4-2.53-6.58s-2.09-4.81-2.86-6.44A17.65,17.65,0,0,1,222.13,453.59Z" style="fill:#263238"></path><path d="M215,435.89,208.1,472.2l43.19,8.51c.59-4.36-20.07-17.42-20.07-17.42l5.33-23.08Z" style="fill:#407BFF"></path><g style="opacity:0.6000000000000001"><path d="M218.24,458.7a1.9,1.9,0,0,0-1.63,1.87,1.73,1.73,0,0,0,1.74,1.67,2,2,0,0,0,1.71-2c-.12-.91-1.14-1.81-2-1.53" style="fill:#fff"></path></g><g style="opacity:0.6000000000000001"><path d="M208.1,472.2l.83-3.64,41.1,9.53s1.75,1.25,1.26,2.62Z" style="fill:#fff"></path></g><path d="M232,463.2c-.05.22-1.12.11-2.3.61s-1.91,1.33-2.08,1.2.38-1.34,1.82-1.92S232.05,463,232,463.2Z" style="fill:#263238"></path><path d="M236.11,466.05c0,.22-1,.42-1.88,1.21s-1.29,1.73-1.5,1.68-.1-1.32,1-2.28S236.15,465.84,236.11,466.05Z" style="fill:#263238"></path><path d="M237.58,472.22c-.2,0-.28-1.15.5-2.25s1.85-1.38,1.91-1.18-.68.72-1.31,1.64S237.79,472.24,237.58,472.22Z" style="fill:#263238"></path><path d="M232.62,457.81c-.13.18-1-.31-2.25-.47s-2.21.06-2.28-.15,1-.82,2.39-.62S232.76,457.65,232.62,457.81Z" style="fill:#263238"></path><path d="M232.63,452.25a4,4,0,0,1-2.16-.44,9.72,9.72,0,0,1-2.12-1.17,10.33,10.33,0,0,1-1.11-.93,3.2,3.2,0,0,1-.55-.66,1,1,0,0,1,.14-1.2,1.16,1.16,0,0,1,1-.32,2.71,2.71,0,0,1,.79.28,8.11,8.11,0,0,1,1.25.75,7.46,7.46,0,0,1,1.72,1.76,3.87,3.87,0,0,1,.92,2.08c-.11.06-.46-.73-1.33-1.73a8.68,8.68,0,0,0-1.71-1.52,8.51,8.51,0,0,0-1.16-.64c-.43-.22-.82-.3-1-.11s-.07.11,0,.27a2.24,2.24,0,0,0,.4.48,12,12,0,0,0,1,.91,12.68,12.68,0,0,0,1.93,1.25A13.58,13.58,0,0,1,232.63,452.25Z" style="fill:#263238"></path><path d="M232.3,452.51a3.76,3.76,0,0,1-.15-2.29,7.69,7.69,0,0,1,.78-2.42,7.32,7.32,0,0,1,.82-1.26,1.83,1.83,0,0,1,1.6-.87,1,1,0,0,1,.78.81,3.35,3.35,0,0,1,.06.87,5.26,5.26,0,0,1-.29,1.52,5.44,5.44,0,0,1-1.38,2.15c-1.07,1-2,1.1-2,1s.77-.41,1.63-1.4a5.33,5.33,0,0,0,1.1-2,4.74,4.74,0,0,0,.22-1.32c0-.49-.07-.91-.25-.89s-.65.24-.91.59a8,8,0,0,0-.77,1.12,8.63,8.63,0,0,0-.86,2.17C232.35,451.63,232.42,452.5,232.3,452.51Z" style="fill:#263238"></path><path d="M151,412.16l-27.57,24.61,29.09,33.05c3.12-3.1-5.32-26-5.32-26l18.28-15.07Z" style="fill:#407BFF"></path><g style="opacity:0.6000000000000001"><path d="M139.65,432.24a1.88,1.88,0,0,0-2.43.49,1.73,1.73,0,0,0,.36,2.38,2,2,0,0,0,2.57-.53,1.77,1.77,0,0,0-.65-2.42" style="fill:#fff"></path></g><g style="opacity:0.6000000000000001"><path d="M123.38,436.77l2.88-2.38L153.07,467s.63,2.06-.6,2.85Z" style="fill:#fff"></path></g><path d="M147.8,444.16c-.18.14-1-.6-2.2-.91s-2.32-.12-2.39-.32,1.12-.83,2.62-.42S148,444.06,147.8,444.16Z" style="fill:#263238"></path><path d="M149.35,449c-.13.18-1-.27-2.22-.19s-2.09.59-2.22.42.72-1.11,2.21-1.18S149.51,448.8,149.35,449Z" style="fill:#263238"></path><path d="M146.76,454.74c-.16-.12.48-1.09,1.76-1.48s2.32,0,2.24.22-1,.16-2,.5S146.92,454.88,146.76,454.74Z" style="fill:#263238"></path><path d="M151.6,440.28c-.21.07-.63-.88-1.5-1.73s-1.79-1.3-1.72-1.52,1.27,0,2.28,1S151.8,440.24,151.6,440.28Z" style="fill:#263238"></path><path d="M155,435.88c-.06.06-.73-.48-1.44-1.66a9.41,9.41,0,0,1-1-2.22,11.82,11.82,0,0,1-.32-1.42,2.94,2.94,0,0,1,0-.86,1,1,0,0,1,.83-.86,1.17,1.17,0,0,1,1,.36,2.83,2.83,0,0,1,.45.7,7,7,0,0,1,.54,1.36,7.65,7.65,0,0,1,.3,2.45,3.83,3.83,0,0,1-.54,2.21c-.12,0,.07-.86,0-2.18a8.85,8.85,0,0,0-.43-2.25,9.8,9.8,0,0,0-.53-1.22c-.22-.43-.48-.73-.72-.68-.09,0-.12,0-.16.21a2.35,2.35,0,0,0,0,.63,10.46,10.46,0,0,0,.25,1.33A12.06,12.06,0,0,0,154,434C154.58,435.14,155.09,435.8,155,435.88Z" style="fill:#263238"></path><path d="M154.57,435.88c-.08,0,.24-.88,1.28-1.91a7.89,7.89,0,0,1,2.09-1.44,7.57,7.57,0,0,1,1.41-.5,1.82,1.82,0,0,1,1.8.28,1,1,0,0,1,.13,1.12,3.42,3.42,0,0,1-.48.73,5.57,5.57,0,0,1-1.16,1,5.43,5.43,0,0,1-2.41.86c-1.46.15-2.25-.35-2.21-.41a20.8,20.8,0,0,0,2.15-.12,5.53,5.53,0,0,0,2.09-.91,5.17,5.17,0,0,0,1-.91c.32-.38.5-.77.34-.87a1.3,1.3,0,0,0-1.07-.08,8.13,8.13,0,0,0-3.3,1.62C155.15,435.22,154.67,436,154.57,435.88Z" style="fill:#263238"></path><path d="M259.7,274.7s-19.27,91.93-27.12,103.7-81,69.55-81,69.55l-20.68-20.74s22.89-25.26,34-33.44c8.12-6,23.43-20.33,31.09-27.63a16.9,16.9,0,0,0,5.18-10.76c1-11.25,2.91-34.21,2.72-41.51-.26-9.81-6.66-19.61-4.3-33.34s16.67-26.11,16.67-26.11Z" style="fill:#263238"></path><path d="M247.62,291.09c0,1,10.14,66.71,8.83,77.5s-22.24,94.84-22.24,94.84l-25.2-5s2.42-27.65,4.27-43.05c1.73-14.29,1.8-37.45,2-38.1.61-2.4,5.23-31.88,5.23-31.88l-12.43-56.9Z" style="fill:#263238"></path><path d="M253.88,301.33a1.48,1.48,0,0,1-.07.37c-.06.27-.15.63-.26,1.09-.24,1-.59,2.39-1,4.19-.93,3.65-2.27,8.89-3.93,15.35s-3.76,14.17-5.64,22.82c-1,4.31-2.05,8.84-3.23,13.51s-2.48,9.49-4.17,14.33c-.4,1.22-.89,2.4-1.38,3.57-.28.57-.54,1.15-.84,1.71l-.51.81a3.66,3.66,0,0,1-.57.77c-.82,1-1.71,1.83-2.59,2.68s-1.78,1.68-2.66,2.5c-3.55,3.26-7,6.34-10.38,9.24-6.68,5.81-12.75,11-17.87,15.28l-12.17,10.16-3.34,2.73-.87.7-.31.22a2.09,2.09,0,0,1,.27-.26l.85-.74,3.27-2.81,12.06-10.28c5.09-4.35,11.14-9.53,17.8-15.36,3.33-2.91,6.81-6,10.35-9.25.87-.83,1.78-1.63,2.64-2.5s1.76-1.71,2.55-2.64a3.21,3.21,0,0,0,.54-.73l.49-.77c.29-.54.54-1.12.81-1.68.49-1.15,1-2.31,1.37-3.52,1.67-4.81,3-9.63,4.16-14.29s2.26-9.18,3.26-13.49c1.9-8.64,4.06-16.33,5.75-22.8s3.12-11.67,4.1-15.31c.48-1.79.87-3.18,1.13-4.16.13-.46.24-.81.31-1.08A2.8,2.8,0,0,1,253.88,301.33Z" style="fill:#455a64"></path><path d="M281.15,181.27c.11,8.17,2.93,16,4.69,24s2.36,16.77-1.63,23.89c-2.42,4.33-17.06,18.33-19.75,22.5L259.7,274.7l-36.11-13.07,20.76-73.28Z" style="fill:#e0e0e0"></path><path d="M252.75,189.42s-4.52,52.65-.57,60.92,11.15,8.3,19.78,7.58,33.59-21.86,33.59-21.86l-6.24-17.83-20.42,8.91s3.46-37.95,3.46-41.2c0-7.66-6.15-18-13.34-16.17S253.57,176.46,252.75,189.42Z" style="fill:#407BFF"></path><path d="M269.62,167.6s-22.12.1-28.6,6.28-29,50-36,61.85c-8.26,14-40.09,36.86-44.75,46.29-8,16.31,10.38,32.8,10.38,32.8S165,292.6,185.06,296s21.29,4.94,26.85.93,42.59-57.72,42.9-59.57,17-62,17-62Z" style="fill:#407BFF"></path><path d="M250.72,243.94a1.85,1.85,0,0,1-.1-.48l-.18-1.39c-.13-1.21-.26-3-.33-5.15-.16-4.35-.06-10.35.21-17s.65-12.62.92-16.95c.13-2.11.24-3.84.32-5.14.05-.55.08-1,.11-1.39a1.78,1.78,0,0,1,.07-.49,1.56,1.56,0,0,1,0,.49v1.4c0,1.22-.08,3-.17,5.14-.2,4.42-.46,10.38-.76,17s-.43,12.62-.36,16.95c0,2.17.1,3.93.16,5.14,0,.55.06,1,.08,1.39A1.64,1.64,0,0,1,250.72,243.94Z" style="fill:#263238"></path><path d="M248.41,232.68s-.07,0-.22.13l-.67.35-2.6,1.31c-1.13.55-2.51,1.24-4.09,2.09s-3.4,1.77-5.35,2.9l-3.08,1.75c-1.07.6-2.15,1.29-3.29,2-2.29,1.34-4.65,2.9-7.16,4.52-4.95,3.31-10.28,7.13-15.66,11.42s-10.23,8.71-14.54,12.83c-2.11,2.1-4.15,4.07-5.95,6-.91,1-1.82,1.88-2.64,2.79s-1.61,1.8-2.37,2.63c-1.53,1.66-2.81,3.24-4,4.6s-2.15,2.56-2.93,3.55L172,293.78l-.48.58a1.83,1.83,0,0,1-.18.19s0-.08.14-.22.26-.37.44-.61l1.76-2.32c.76-1,1.71-2.23,2.86-3.6s2.42-3,3.94-4.66l2.34-2.66c.82-.92,1.72-1.84,2.62-2.81,1.8-2,3.83-3.95,5.94-6.06,4.29-4.16,9.18-8.56,14.55-12.89s10.74-8.13,15.72-11.42c2.52-1.61,4.9-3.16,7.2-4.49,1.14-.67,2.23-1.35,3.31-1.95l3.1-1.72c2-1.12,3.81-2,5.4-2.83s3-1.5,4.14-2l2.64-1.22.69-.31A1,1,0,0,1,248.41,232.68Z" style="fill:#263238"></path><path d="M247.59,231.3a4.23,4.23,0,0,1-1,.38l-2.73.89c-2.3.74-5.48,1.78-9,3s-6.61,2.42-8.87,3.29l-2.68,1a5,5,0,0,1-1,.32,3.62,3.62,0,0,1,.93-.51c.61-.29,1.5-.69,2.62-1.17,2.23-1,5.35-2.2,8.84-3.44s6.7-2.22,9-2.87c1.17-.33,2.12-.58,2.78-.73A3.62,3.62,0,0,1,247.59,231.3Z" style="fill:#263238"></path><path d="M245.92,222.94a7.09,7.09,0,0,1-2-.33,32.81,32.81,0,0,1-4.74-1.57,31.66,31.66,0,0,1-4.43-2.29,7.36,7.36,0,0,1-1.67-1.24c.09-.13,2.74,1.56,6.3,3.05S246,222.78,245.92,222.94Z" style="fill:#263238"></path><path d="M282.05,184.49a11,11,0,0,1-.37-1.54,39.84,39.84,0,0,0-1.06-4.17,14.46,14.46,0,0,0-3.07-5.45,9,9,0,0,0-3-2.11,9.69,9.69,0,0,0-3.87-.69,17.89,17.89,0,0,0-7.43,1.9A20.32,20.32,0,0,0,258.1,176a28.23,28.23,0,0,0-3.66,4.57s0-.14.16-.38a10.92,10.92,0,0,1,.56-1,18.16,18.16,0,0,1,2.68-3.42,19.65,19.65,0,0,1,5.22-3.78,18,18,0,0,1,7.64-2,10,10,0,0,1,4.07.74A9.27,9.27,0,0,1,277.9,173a14.28,14.28,0,0,1,3.07,5.67,32,32,0,0,1,.91,4.24A7.94,7.94,0,0,1,282.05,184.49Z" style="fill:#263238"></path><g style="opacity:0.30000000000000004"><path d="M183.59,280.09c12.46-13.31,26.78-24.71,41.9-34.91-18.55,8.24-35.26,20.22-50.28,33.87-4,3.64-8.08,7.67-9.57,12.88-2,6.88,2.13,16.34,5,22.89,0,0-4-13.63-.54-18.64C173.8,290.91,183.59,280.09,183.59,280.09Z"></path></g><g style="opacity:0.30000000000000004"><path d="M251.13,202A62.41,62.41,0,0,0,249,243.94l.43,1.74c0,.49,1.28-2.23,1.32-1.74C249.87,231.54,251.05,216.34,251.13,202Z"></path></g><path d="M270.49,238.3a5.84,5.84,0,0,1,.65-1.88,19.64,19.64,0,0,1,6-7.41,6,6,0,0,1,1.71-1,49.08,49.08,0,0,0-4.78,4.69A47.44,47.44,0,0,0,270.49,238.3Z" style="fill:#263238"></path><path d="M208.35,299.91a3.2,3.2,0,0,1-.55,0l-1.54-.2-5.64-.85-8.36-1.32-4.94-.8c-1.71-.27-3.47-.6-5.29-.72a12.93,12.93,0,0,0-5.19.54,8.68,8.68,0,0,0-3.91,2.79,14,14,0,0,0-2.88,7.69,23.1,23.1,0,0,0,.07,5.65,8.38,8.38,0,0,0,.54,2s0,0-.09-.11a2.83,2.83,0,0,1-.2-.35,6.85,6.85,0,0,1-.45-1.5,21.37,21.37,0,0,1-.23-5.72,14.27,14.27,0,0,1,2.86-8,9.21,9.21,0,0,1,4.12-3,13.35,13.35,0,0,1,5.4-.58c1.85.13,3.63.46,5.34.74l4.93.83,8.34,1.43,5.62,1,1.52.3A1.89,1.89,0,0,1,208.35,299.91Z" style="fill:#263238"></path><path d="M236.14,160.63c-9,1.58-17.4,5.51-26.35,7.24A56.19,56.19,0,0,1,156,147.57a40.42,40.42,0,0,0,4,12.88,25.15,25.15,0,0,1-15.83-5.78c1,4.12,4.17,7.39,7.49,10,10.75,8.61,23,15.26,36.73,16.61s32.18-1.54,46.31-6.7l26.77-7.33C255.48,160.35,245.12,159,236.14,160.63Z" style="fill:#455a64"></path><g style="opacity:0.2"><path d="M236.14,160.63c-9,1.58-17.4,5.51-26.35,7.24A56.19,56.19,0,0,1,156,147.57a40.42,40.42,0,0,0,4,12.88,25.15,25.15,0,0,1-15.83-5.78c1,4.12,4.17,7.39,7.49,10,10.75,8.61,23,15.26,36.73,16.61s32.18-1.54,46.31-6.7l26.77-7.33C255.48,160.35,245.12,159,236.14,160.63Z"></path></g><path d="M284.56,172.36c-7.94-9.18-16.85-15.36-30.12-15.67-15.39-.35-32.89,12.59-46.84,19.61-10.42,5.24-21.2,10.3-31.63,15.53a57.69,57.69,0,0,1-20.4,5.93c-2.26.22-4.7.38-7.19.42A120.55,120.55,0,0,1,128,196.45c-4.85-1.28-9.92-3.4-14.77-4.68,3.7,5.39,6.22,6.9,11.57,10.65-4.56.2-10.58,1.44-15.14,1.64,19.2,6.59,43.55,15.32,63,9.62,20.72-6.06,35.43-24.7,55.29-33.12,14.51-6.15,32.08-15.37,46.73-9.57,3.72,1.47,6.51,6.8,7.71,15C282.39,186,287.59,175.87,284.56,172.36Z" style="fill:#455a64"></path><path d="M258.46,157.93s-.72.12-2,.35a31,31,0,0,0-5.34,1.44,42.13,42.13,0,0,0-7.38,3.59,72.32,72.32,0,0,0-8.18,5.86c-2.77,2.27-5.33,4.54-7.7,6.56s-4.53,3.8-6.42,5.2-3.49,2.46-4.62,3.13c-.56.35-1,.58-1.32.75a3.06,3.06,0,0,1-.48.23,15.81,15.81,0,0,1,1.69-1.15c1.09-.72,2.65-1.81,4.5-3.25s4-3.23,6.34-5.28,4.89-4.31,7.68-6.59a69,69,0,0,1,8.27-5.87,38.92,38.92,0,0,1,7.5-3.52,27.11,27.11,0,0,1,5.43-1.3c.65-.11,1.17-.11,1.51-.15A1.78,1.78,0,0,1,258.46,157.93Z" style="fill:#263238"></path><path d="M223.58,174.68c.07.13-6.06,4.06-13.69,8.78s-13.9,8.46-14,8.34,6.05-4.06,13.69-8.78S223.5,174.56,223.58,174.68Z" style="fill:#263238"></path><path d="M253.38,68.86s68.24,4.54,87.88,18.36,46.46,35.53,46.46,35.53,33.82,39.94,36.72,62.48.31,85,.31,85-16-22.45-37.08-27.22c0,0-37.81-65.12-67.62-83.3,0,0-2.33-14.37-23.6-42C287.44,106,270,97.6,270,97.6S262.83,69.58,253.38,68.86Z" style="fill:#407BFF"></path><path d="M390.3,125.9a4.14,4.14,0,0,1-.75.25l-2.19.64c-1,.26-2.12.58-3.45,1s-2.88.88-4.53,1.51-3.49,1.24-5.42,2-4,1.64-6.12,2.56c-4.26,1.92-8.89,4.17-13.66,6.7-9.53,5.08-17.94,10.09-24.09,13.59-3.08,1.75-5.57,3.16-7.32,4.11l-2,1.08a4.32,4.32,0,0,1-.71.34,5.63,5.63,0,0,1,.66-.43l2-1.17,7.23-4.25c6.11-3.58,14.49-8.64,24-13.73,4.78-2.53,9.42-4.78,13.71-6.67,2.16-.92,4.2-1.81,6.16-2.53s3.77-1.41,5.45-2,3.22-1,4.56-1.44,2.52-.72,3.49-1l2.21-.54A3.85,3.85,0,0,1,390.3,125.9Z" style="fill:#263238"></path><g style="opacity:0.30000000000000004"><path d="M413.92,159.51s3.08,16.51.32,32.15S387.67,243,387.67,243a50.74,50.74,0,0,1,15.3,6.68c12.42,7.82,21.78,20.54,21.78,20.54l1.05-33.65V214.44s0-8.94-.46-17.57A124.7,124.7,0,0,0,423.78,181C422.51,176,414.53,159.06,413.92,159.51Z"></path></g><path d="M366.08,105.33l-.23-.12-.65-.38-2.52-1.44c-2.2-1.23-5.41-3-9.5-4.85A104.78,104.78,0,0,0,338.4,93c-1.42-.43-2.9-.77-4.41-1.15-.76-.16-1.54-.25-2.32-.38a16.86,16.86,0,0,0-2.37-.28c-1.62-.1-3.25-.25-4.93-.21h-2.52c-.85,0-1.7.07-2.56.1-6.86.28-13.38,1-19.3,1.74s-11.21,1.61-15.66,2.33-8,1.39-10.52,1.84l-2.86.52-.74.12a.86.86,0,0,1-.26,0,.76.76,0,0,1,.25-.08l.73-.18,2.84-.61c2.47-.51,6.05-1.22,10.5-2s9.74-1.66,15.66-2.44,12.45-1.51,19.34-1.79c.86,0,1.72-.08,2.57-.1h2.54c1.68,0,3.33.11,5,.22a19.11,19.11,0,0,1,2.41.29c.79.14,1.58.24,2.35.4,1.52.38,3,.73,4.44,1.17a101.62,101.62,0,0,1,14.79,5.71c4.09,1.93,7.28,3.73,9.45,5,1.09.64,1.92,1.17,2.48,1.53l.62.42C366,105.26,366.09,105.32,366.08,105.33Z" style="fill:#263238"></path><path d="M413.92,159.51a.8.8,0,0,1,.07.22c0,.18.08.41.13.67.12.6.27,1.47.43,2.61.32,2.26.72,5.56.91,9.65a93,93,0,0,1-.34,14.38c-.13,1.35-.33,2.72-.55,4.12-.08.71-.31,1.4-.46,2.11s-.29,1.44-.55,2.13a75,75,0,0,1-3.29,8.53,251.13,251.13,0,0,1-15.36,28c-2.15,3.48-4,6.25-5.22,8.16l-1.47,2.18-.4.56-.15.18a5.29,5.29,0,0,1,.46-.8l1.39-2.23c1.21-1.94,3-4.74,5.08-8.24a277,277,0,0,0,15.2-28.06,77.13,77.13,0,0,0,3.27-8.45c.26-.69.36-1.41.55-2.1s.37-1.38.45-2.08c.23-1.39.44-2.75.57-4.1a96,96,0,0,0,.45-14.31c-.14-4.08-.49-7.37-.74-9.64l-.33-2.61c0-.27-.06-.49-.09-.68A1,1,0,0,1,413.92,159.51Z" style="fill:#263238"></path><path d="M376.41,196.34a7.88,7.88,0,0,1-.56-1.25c-.33-.82-.82-2-1.45-3.43a87,87,0,0,0-12.89-20.79c-1-1.2-1.83-2.17-2.42-2.82a8.38,8.38,0,0,1-.87-1.06,6,6,0,0,1,1,.92c.63.61,1.51,1.54,2.55,2.72a73.7,73.7,0,0,1,7.34,9.91,75,75,0,0,1,5.61,11c.59,1.46,1,2.66,1.3,3.5A6.29,6.29,0,0,1,376.41,196.34Z" style="fill:#263238"></path><path d="M317.17,129.4a14.34,14.34,0,0,1-.73-2.35,48.57,48.57,0,0,0-2-5.56,50.52,50.52,0,0,0-2.66-5.26,15.72,15.72,0,0,1-1.2-2.15,9,9,0,0,1,1.51,2,33.19,33.19,0,0,1,2.83,5.26A34.08,34.08,0,0,1,316.8,127,9.8,9.8,0,0,1,317.17,129.4Z" style="fill:#263238"></path><path d="M321.54,116.63a24.72,24.72,0,0,1,.81,5.08,26.15,26.15,0,0,1,.29,5.14,25.56,25.56,0,0,1-.81-5.08A26.15,26.15,0,0,1,321.54,116.63Z" style="fill:#263238"></path><g style="opacity:0.1"><path d="M324.14,157.19c7.06-1.21,17.65-5.91,25-10.51,12.34-7.75,26.08-13,36.18-19.64C361.89,134.46,345.43,145.1,324.14,157.19Z"></path></g><g style="opacity:0.1"><path d="M342,93.88c-7.44-4.12-16.06-5.74-24.56-5.88s-17,1.16-25.35,2.54c-6.2,1-13.12,2.29-18,6.24,0,0,33.17-6.07,43.13-6s12.88-.16,16.64.75S342,93.88,342,93.88Z"></path></g></g><g id="freepik--Leaves--inject-13"><path d="M141.88,313.34a10.82,10.82,0,0,0,.69,2.36,11.85,11.85,0,0,0-3.84-2.21,25.26,25.26,0,0,0-7.12-1h-.22a16.22,16.22,0,0,0,4.94,6.79,11.45,11.45,0,0,0,1.41.88c-.49.17-1,.37-1.46.57-3.25,1.39-7.65,4.89-9.81,6.57a29.85,29.85,0,0,0,12.91.41l.78-.17a11.41,11.41,0,0,0-.88,2,25.63,25.63,0,0,0-1,7.12v.22a16.19,16.19,0,0,0,6.78-4.94,11.64,11.64,0,0,0,1.65-3.26,10.42,10.42,0,0,0,.66,1.71,15,15,0,0,0,4.71,5.33l0-.19a24.44,24.44,0,0,0-.13-6.17,12.79,12.79,0,0,0-2.46-5.33,36.31,36.31,0,0,0-2.62-2.86h0a36,36,0,0,0,.46-3.85,12.73,12.73,0,0,0-1.12-5.76,24.29,24.29,0,0,0-3.49-5.08l-.12-.15A14.86,14.86,0,0,0,141.88,313.34Z" style="fill:#455a64"></path><path d="M154.27,318c0,.12-4.07,1.83-9.2,3.82s-9.32,3.51-9.37,3.4,4.08-1.83,9.21-3.82S154.23,317.88,154.27,318Z" style="fill:#263238"></path><path d="M144.45,321.84a5,5,0,0,1-.44,2.05,5.08,5.08,0,0,1-.88,1.92,5.17,5.17,0,0,1,.45-2.06A5.35,5.35,0,0,1,144.45,321.84Z" style="fill:#263238"></path><path d="M142.54,322.77c-.08.1-.65-.29-1.36-.73s-1.3-.8-1.25-.91.75.06,1.49.53S142.63,322.69,142.54,322.77Z" style="fill:#263238"></path><path d="M359.23,388.86a8.32,8.32,0,0,0-.47,1.76,8.53,8.53,0,0,0-1.59-2.87,19,19,0,0,0-4.13-3.37l-.14-.09a12.12,12.12,0,0,0,.54,6.2,8.74,8.74,0,0,0,.56,1.1c-.38-.08-.76-.14-1.15-.2-2.59-.36-6.73.18-8.74.41a22.08,22.08,0,0,0,8,5.21l.55.19a8.63,8.63,0,0,0-1.3.9,18.77,18.77,0,0,0-3.37,4.13l-.09.14a12.12,12.12,0,0,0,6.2-.54,8.63,8.63,0,0,0,2.3-1.44,7.69,7.69,0,0,0-.24,1.34,11,11,0,0,0,.95,5.18l.08-.11a18.3,18.3,0,0,0,2.28-4,9.44,9.44,0,0,0,.48-4.33,26.14,26.14,0,0,0-.57-2.81h0a26.24,26.24,0,0,0,1.77-2.27,9.43,9.43,0,0,0,1.49-4.08,17.67,17.67,0,0,0-.27-4.57l0-.13A11,11,0,0,0,359.23,388.86Z" style="fill:#455a64"></path><path d="M365.31,396.56c0,.09-3.29-.41-7.3-1.11s-7.26-1.33-7.24-1.42,3.28.4,7.3,1.1S365.32,396.47,365.31,396.56Z" style="fill:#263238"></path><path d="M357.61,395.24c.06.07-.42.57-1.07,1.13s-1.23.95-1.29.88.42-.58,1.07-1.13S357.55,395.17,357.61,395.24Z" style="fill:#263238"></path><path d="M356,395.1c-.09,0-.31-.44-.58-1s-.52-1-.45-1.05.45.32.74.9S356.12,395.08,356,395.1Z" style="fill:#263238"></path><path d="M327.16,345s6.23,11.14,17.74,4C344.9,348.91,337.26,338,327.16,345Z" style="fill:#455a64"></path><path d="M348.86,349.58a74.85,74.85,0,0,1-8-1.52,75.8,75.8,0,0,1-7.95-1.95,74.85,74.85,0,0,1,8,1.52A72.93,72.93,0,0,1,348.86,349.58Z" style="fill:#263238"></path><path d="M335.27,344.51c.1-.08.64.42,1.22,1.11s1,1.32.87,1.4-.64-.42-1.21-1.11S335.18,344.59,335.27,344.51Z" style="fill:#263238"></path><path d="M341.57,347.93c.06.11-.61.55-1.48,1s-1.63.67-1.68.56.61-.54,1.48-1S341.52,347.82,341.57,347.93Z" style="fill:#263238"></path><path d="M451.06,323s12.17-3.83,7.48-16.56C458.54,306.46,446.28,311.71,451.06,323Z" style="fill:#455a64"></path><path d="M460,302.72a75.68,75.68,0,0,1-3.13,7.56,76.12,76.12,0,0,1-3.53,7.38,76.81,76.81,0,0,1,3.13-7.56A73.43,73.43,0,0,1,460,302.72Z" style="fill:#263238"></path><path d="M452.28,315c-.06-.11.54-.54,1.33-1s1.49-.68,1.55-.57-.54.54-1.34,1S452.33,315.1,452.28,315Z" style="fill:#263238"></path><path d="M456.91,309.52c.12,0,.41.71.64,1.65a3.59,3.59,0,0,1,.21,1.76c-.12,0-.41-.71-.64-1.65A3.59,3.59,0,0,1,456.91,309.52Z" style="fill:#263238"></path><path d="M84.08,346.09s12.54-2.34,9.42-15.54C93.5,330.55,80.7,334.29,84.08,346.09Z" style="fill:#455a64"></path><path d="M95.4,327a75.34,75.34,0,0,1-4,7.13,74.69,74.69,0,0,1-4.39,6.9,75.34,75.34,0,0,1,4-7.13A74.69,74.69,0,0,1,95.4,327Z" style="fill:#263238"></path><path d="M86.25,338.27c0-.12.6-.48,1.45-.8s1.56-.5,1.6-.38-.6.47-1.44.8S86.3,338.38,86.25,338.27Z" style="fill:#263238"></path><path d="M91.51,333.39a7.1,7.1,0,0,1,.44,3.49c-.13,0-.32-.75-.44-1.72A3.72,3.72,0,0,1,91.51,333.39Z" style="fill:#263238"></path><path d="M40,305.43s11.65,5.2,16.58-7.43C56.53,298,43.88,293.8,40,305.43Z" style="fill:#455a64"></path><path d="M60.11,296.17a73.09,73.09,0,0,1-7.35,3.59,74.66,74.66,0,0,1-7.55,3.18,76.7,76.7,0,0,1,7.36-3.59A75.1,75.1,0,0,1,60.11,296.17Z" style="fill:#263238"></path><path d="M46.19,300.22c0-.12.76,0,1.64.17s1.56.48,1.54.6-.77,0-1.65-.17S46.16,300.35,46.19,300.22Z" style="fill:#263238"></path><path d="M53.28,299.2c.11.06-.16.81-.61,1.67s-.9,1.51-1,1.45.16-.8.61-1.66S53.17,299.15,53.28,299.2Z" style="fill:#263238"></path><path d="M116.69,266.59s2.88,12.42,15.93,8.74C132.62,275.33,128.34,262.7,116.69,266.59Z" style="fill:#455a64"></path><path d="M136.24,277.08a74.67,74.67,0,0,1-7.3-3.7,73.82,73.82,0,0,1-7.09-4.1,76.27,76.27,0,0,1,7.3,3.71A75.13,75.13,0,0,1,136.24,277.08Z" style="fill:#263238"></path><path d="M124.6,268.42c.12-.05.5.58.86,1.41s.57,1.54.45,1.59-.5-.58-.86-1.41S124.49,268.47,124.6,268.42Z" style="fill:#263238"></path><path d="M129.7,273.46c0,.13-.74.36-1.7.52a3.69,3.69,0,0,1-1.77.07c0-.12.74-.35,1.7-.51A3.76,3.76,0,0,1,129.7,273.46Z" style="fill:#263238"></path><path d="M274.8,375.54s9.86,8.1,18-2.77C292.76,372.77,281.67,365.36,274.8,375.54Z" style="fill:#455a64"></path><path d="M296.7,372a73.24,73.24,0,0,1-8.05,1.52,76.44,76.44,0,0,1-8.11,1.07,73.34,73.34,0,0,1,8-1.52A76.44,76.44,0,0,1,296.7,372Z" style="fill:#263238"></path><path d="M282.2,372.18c.06-.11.74.15,1.54.59s1.38.87,1.32,1-.75-.15-1.54-.59S282.14,372.28,282.2,372.18Z" style="fill:#263238"></path><path d="M289.31,373.07c.09.08-.37.73-1,1.44s-1.27,1.22-1.36,1.14.37-.73,1-1.45S289.22,373,289.31,373.07Z" style="fill:#263238"></path><path d="M403.06,377.6s21-4.17,15.54-26.29C418.6,351.31,397.16,357.84,403.06,377.6Z" style="fill:#455a64"></path><path d="M421.73,345.33c.11.07-2.91,5.43-6.74,12s-7,11.82-7.12,11.76,2.91-5.43,6.74-12S421.62,345.27,421.73,345.33Z" style="fill:#263238"></path><path d="M406.57,364.41a8.89,8.89,0,0,1,2.47-1.23,8.75,8.75,0,0,1,2.63-.81,8.46,8.46,0,0,1-2.47,1.23A8.57,8.57,0,0,1,406.57,364.41Z" style="fill:#263238"></path><path d="M415.31,356.12a19.8,19.8,0,0,1,.8,5.85,10,10,0,0,1-.62-2.89A10.14,10.14,0,0,1,415.31,356.12Z" style="fill:#263238"></path></g></svg>